<?xml version="1.0"?>
<svg width="201px" height="101px" viewBox="0 0 201 101" version="1.1" xmlns="http://www.w3.org/2000/svg" xmlns:xlink="http://www.w3.org/1999/xlink">
    <title>Group 40</title>
    <defs>
        <polygon id="path-1" points="0 0.13043956 48.4844858 0.13043956 48.4844858 58.7776923 0 58.7776923"></polygon>
    </defs>
    <g id="Pages" stroke="none" stroke-width="1" fill="none" fill-rule="evenodd">
        <g id="BB-3.-Public-Content" transform="translate(-700.000000, -61.000000)">
            <g id="Header" transform="translate(-40.528871, -9.101124)">
                <g id="Group-40" transform="translate(741.000000, 71.000000)">
                    <path d="M34.9374725,62.7337363 L57.2242857,62.7337363 C58.7715385,62.7227473 60.8187912,61.8271429 62.5649451,60.9623077 C68.1330769,57.8930769 71.4286813,51.6425275 71.0869231,45.5062637 C70.4056044,38.6886813 65.7473626,33.4612088 59.3836264,31.3018681 L59.2704396,31.0743956 C61.3143956,29.5974725 63.588022,28.9161538 65.4067033,26.7568132 C69.1561538,22.6656044 69.4968132,15.9612088 67.4517582,11.4150549 C65.7473626,7.77879121 60.6451648,4.08538462 56.4803297,4.08538462 L35.2979121,4.08538462 C37.4297802,4.83813187 40.2704396,6.04582418 42.1165934,8.07769231 L44.2693407,8.07769231 C47.6792308,7.96340659 52.1231868,9.02824176 54.0550549,11.87 C56.5550549,15.1656044 56.8946154,18.9150549 55.3045055,22.6656044 C53.7143956,25.5062637 49.9803297,28.3469231 46.542967,28.3469231 L40.5572527,28.3469231 C39.066044,29.27 36.51,30.8337363 36.2957143,30.9754945 C36.0836264,31.1172527 36.1528571,31.1875824 36.3671429,31.259011 C36.5803297,31.3304396 39.2078022,32.1963736 40.4154945,33.3612088 L44.2693407,33.3612088 C48.1902198,33.3612088 52.3572527,34.3985714 54.8506593,37.5798901 C58.6968132,41.691978 59.4561538,47.3656044 55.9154945,53.1348352 C54.3253846,55.9754945 49.9803297,58.7447253 46.542967,58.7458242 L42.820989,58.7458242 C41.1165934,60.3787912 37.9330769,62.4765934 34.9374725,62.7337363" id="Fill-1" fill="#243b53"></path>
                    <path d="M44.8243956,11.4152747 C43.1189011,7.77901099 39.4826374,5.22186813 35.5068132,4.0856044" id="Fill-3" fill="#243b53"></path>
                    <g id="Group-7" transform="translate(0.000000, 3.955604)">
                        <mask id="mask-2" fill="white">
                            <use xlink:href="#path-1"></use>
                        </mask>
                        <g id="Clip-6"></g>
                        <path d="M33.2869231,49.1787912 C36.8275824,43.4095604 36.0682418,37.7359341 32.2220879,33.6249451 C29.7286813,30.4425275 25.5627473,29.4062637 21.6418681,29.4062637 L16.0154945,29.4062637 C15.7737363,29.391978 15.5473626,29.7183516 15.5616484,29.902967 L15.5473626,54.291978 C15.5341758,54.4765934 15.7605495,54.8040659 16.0023077,54.7897802 L23.9143956,54.7897802 C27.353956,54.7886813 31.6968132,52.0194505 33.2869231,49.1787912 M32.677033,18.7095604 C34.2682418,14.9601099 33.9264835,11.2106593 31.4275824,7.91505495 C29.4946154,5.0732967 25.0506593,4.00846154 21.6418681,4.12164835 L16.0154945,4.12164835 C15.7737363,4.10736264 15.5473626,4.43373626 15.5616484,4.61945055 L15.5473626,23.8941758 C15.5341758,24.0787912 15.7605495,24.4062637 16.0023077,24.391978 L23.9143956,24.391978 C27.353956,24.391978 31.0847253,21.5502198 32.677033,18.7095604 M34.5957143,58.7776923 L0.0506593407,58.7776923 C0.0506593407,57.413956 -0.0636263736,56.0963736 0.0506593407,54.8458242 C0.0506593407,54.8458242 2.21659341,54.9458242 2.21659341,54.2359341 L2.21659341,4.50516484 C2.21659341,4.07879121 0.0506593407,4.07879121 0.0506593407,4.07879121 L0.0506593407,0.13043956 L35.5067033,0.13043956 C39.4825275,1.2667033 43.1187912,3.82384615 44.8242857,7.46010989 C46.8682418,12.0051648 46.5286813,18.7095604 42.7781319,22.8007692 C40.9594505,24.9601099 38.6869231,25.6425275 36.6418681,27.1183516 L36.7550549,27.3458242 C43.1187912,29.5051648 47.7792308,34.7326374 48.4605495,41.5513187 C48.8001099,47.6875824 45.5056044,53.937033 39.9363736,57.0062637 C38.1902198,57.8721978 36.1451648,58.7667033 34.5957143,58.7776923" id="Fill-5" fill="#243b53" mask="url(#mask-2)"></path>
                    </g>
                    <path d="M89.5551648,27.1101099 C89.7287912,25.9738462 89.6727473,24.7123077 89.6727473,23.5452747 C89.6727473,19.8551648 89.8925275,13.1562637 84.7804396,13.1562637 C79.6705495,13.1562637 79.8892308,19.8551648 79.8892308,23.5452747 C79.8892308,24.7123077 79.8331868,25.9738462 80.0079121,27.1101099 C80.4705495,30.0430769 80.530989,33.9672527 84.7804396,33.9672527 C89.030989,33.9672527 89.0914286,30.0430769 89.5551648,27.1101099 M73.3903297,32.0991209 C71.5364835,29.9243956 70.3474725,26.5738462 70.3474725,23.6079121 C70.3474725,20.3595604 71.4189011,17.041978 73.5936264,14.7397802 C75.5353846,12.6584615 81.7573626,11.7936264 84.4826374,11.7936264 C87.5826374,11.7936264 93.4881319,12.4364835 95.6903297,14.8650549 C97.6903297,17.1364835 98.8210989,20.3595604 98.8210989,23.5145055 C98.8210989,26.5738462 97.5167033,30.2705495 95.4298901,32.3837363 C93.1694505,34.7178022 87.9496703,35.2342857 84.876044,35.2342857 C81.9782418,35.2342857 75.3606593,34.4024176 73.3903297,32.0991209" id="Fill-8" fill="#243b53"></path>
                    <path d="M127.851429,29.9979121 C127.851429,31.2176923 127.866813,32.1001099 128.367912,32.5550549 C128.758022,32.91 129.11956,32.7682418 130.043736,32.91 C130.965714,33.0528571 131.092088,33.3682418 130.97011,34.2067033 L116.655824,34.2067033 C116.536044,33.3682418 116.66022,33.0528571 117.585495,32.91 C118.507473,32.7682418 118.927253,32.91 119.316264,32.5550549 C119.816264,32.1001099 119.748132,31.2176923 119.748132,29.9979121 L119.748132,18.5275824 C119.65033,17.3550549 119.595385,16.2286813 118.662418,15.3363736 C118.020659,14.7264835 116.916264,14.2572527 115.931648,14.2572527 C114.012967,14.2572527 112.047033,14.7495604 111.210769,16.3913187 C110.425055,17.9396703 110.458022,21.4671429 110.458022,23.1572527 L110.458022,29.9803297 C110.458022,31.2012088 110.292088,32.0825275 110.790989,32.5374725 C111.18,32.8924176 111.542637,32.7506593 112.466813,32.8924176 C113.390989,33.0352747 113.515165,33.3517582 113.395385,34.188022 L99.4349451,34.188022 C99.3118681,33.3517582 99.4393407,33.0352747 100.361319,32.8924176 C101.285495,32.7506593 101.705275,32.8924176 102.095385,32.5374725 C102.595385,32.0825275 102.465714,31.2012088 102.465714,29.9803297 L102.465714,16.6286813 C102.465714,15.4089011 102.595385,14.5264835 102.095385,14.0715385 C101.705275,13.7165934 100.887692,13.8583516 99.9635165,13.7165934 C99.0415385,13.5748352 98.9184615,13.2748352 99.0415385,12.4374725 L110.420659,11.799011 L110.623956,14.9946154 C112.590989,12.1781319 115.241538,11.4440659 118.982198,11.4440659 C121.541538,11.4440659 125.04044,11.7407692 126.565714,13.9001099 C128.043736,16.0110989 127.851429,18.7462637 127.851429,21.1858242 L127.851429,29.9979121 Z" id="Fill-10" fill="#243b53"></path>
                    <path d="M139.502637,8.24582418 C137.098242,8.24582418 134.746593,6.48208791 134.746593,4.24252747 C134.746593,1.85901099 136.83011,0.000769230769 139.502637,0.000769230769 C142.281758,0.000769230769 144.098242,1.81065934 144.098242,4.24252747 C144.098242,6.48208791 141.95978,8.24582418 139.502637,8.24582418" id="Fill-12" fill="#243b53"></path>
                    <path d="M143.854176,11.4442857 L132.642088,12.0827473 C132.521209,12.919011 132.642088,13.219011 133.566264,13.3618681 C134.49044,13.5036264 135.192637,13.3618681 135.584945,13.7168132 C136.083846,14.1717582 135.96956,15.0530769 135.96956,16.273956 L135.983846,29.9717582 C135.983846,31.1937363 136.050879,32.0750549 135.551978,32.53 C135.162967,32.8838462 134.856374,32.7431868 133.932198,32.8838462 C133.01022,33.0267033 132.883846,33.3442857 133.005824,34.1805495 L147.082747,34.1805495 C147.205824,33.3442857 147.078352,33.0267033 146.156374,32.8838462 C145.232198,32.7431868 144.870659,32.8838462 144.479451,32.53 C143.978352,32.0750549 143.854176,31.1937363 143.854176,29.9717582 L143.854176,11.4442857 Z" id="Fill-14" fill="#243b53"></path>
                    <path d="M156.896154,16.1312088 C156.896154,14.9103297 156.880769,14.029011 157.37967,13.5740659 C157.771978,13.2191209 160.497253,13.1487912 161.432418,13.1487912 C162.154396,13.1487912 162.128022,12.6894505 162.003846,11.8520879 C161.157692,11.9301099 157.87967,11.7751648 156.812637,11.3718681 L156.812637,3.63120879 C155.108242,3.48945055 155.058791,3.77296703 154.774176,4.48285714 C153.121429,8.61362637 154.156593,11.3971429 147.502747,11.7751648 C146.72033,11.7751648 145.892857,11.8707692 145.347802,12.0828571 C145.228022,12.9191209 145.347802,13.2191209 146.271978,13.3608791 C147.196154,13.5026374 148.325824,13.3608791 148.715934,13.7169231 C149.215934,14.1718681 149.134615,15.0531868 149.134615,16.272967 L149.134615,24.0004396 L149.134615,28.3213187 C149.134615,29.9092308 149.036813,31.9125275 150.26978,33.1037363 C151.762088,34.5147253 153.403846,34.4542857 155.534615,34.4542857 C157.178571,34.4542857 160.576374,34.3136264 161.429121,34.1718681 C162.281868,34.0301099 162.636813,34.3158242 162.636813,33.4608791 C162.636813,32.9630769 162.21044,32.7982418 161.784066,32.750989 C160.926923,32.6553846 159.866484,32.750989 158.73022,31.9696703 C157.760989,31.3026374 157.355495,30.6487912 157.096154,29.7674725 C156.943407,29.1498901 156.896154,28.5410989 156.896154,27.8806593 L156.896154,15.5795604" id="Fill-16" fill="#243b53"></path>
                    <path d="M106.623626,42.5520879 L111.286264,57.2465934 C111.570879,58.0982418 111.712637,58.0630769 112.068681,57.2465934 L117.252198,42.6938462 C117.393956,42.3389011 117.536813,41.7707692 117.393956,41.6048352 C117.051099,41.2048352 116.586264,41.3916484 115.663187,41.2498901 C114.737912,41.1081319 114.613736,40.7905495 114.733516,39.9542857 L123.982967,39.9542857 C124.106044,40.7905495 123.980769,41.1081319 123.057692,41.2498901 C122.132418,41.3916484 121.764286,41.2432967 121.381868,41.6048352 C120.878571,42.0784615 120.498352,42.8356044 120.025824,43.4982418 L108.18956,68.4037363 C107.639011,69.472967 106.347802,71.5850549 103.975275,72.74 C101.088462,74.1443956 98.7774725,74.3806593 96.1115385,72.3817582 C94.5972527,71.2443956 92.8456044,66.9059341 97.3434066,65.5630769 C101.628022,64.2850549 101.414835,68.9718681 101.888462,70.0136264 C102.237912,70.7850549 103.752198,71.7389011 105.598352,69.8927473 C107.086264,68.4059341 109.413736,62.9114286 109.413736,62.9114286 C109.697253,62.4378022 109.082967,62.1487912 108.656593,62.0586813 C108.088462,61.9410989 106.812637,62.1542857 105.677473,62.1542857 C104.895055,62.1542857 104.398352,61.8707692 104.325824,61.3740659 L97.2236264,41.5345055 C96.7631868,41.2498901 96.3445055,41.3916484 95.4203297,41.2498901 C94.4972527,41.1081319 94.371978,40.7905495 94.493956,39.9542857 L109.962088,39.9542857 C110.082967,40.7905495 109.957692,41.1081319 109.033516,41.2498901 C108.111538,41.3916484 107.884066,41.6048352 107.357692,41.6048352 C106.957692,41.6048352 106.433516,42.172967 106.623626,42.5520879" id="Fill-18" fill="#243b53"></path>
                    <path d="M151.279341,71.2158242 C159.112308,71.2158242 165.460659,64.8663736 165.460659,57.0345055 C165.460659,49.2015385 159.112308,42.8520879 151.279341,42.8520879 C143.446374,42.8520879 137.098022,49.2015385 137.098022,57.0345055 C137.098022,64.8663736 143.446374,71.2158242 151.279341,71.2158242" id="Fill-20" fill="#243b53"></path>
                    <path d="M176.295385,21.4803297 L176.295385,23.966044 C176.295385,24.9825275 176.295385,26.8451648 176.073407,27.8056044 C175.810769,28.9352747 175.69978,29.7253846 175.064615,30.6297802 C174.394286,31.477033 173.610769,32.0407692 172.75033,32.0407692 C171.10967,32.0407692 169.594286,30.4034066 169.594286,28.088022 C169.594286,22.7792308 173.648132,22.61 176.295385,21.4803297 M184.622857,27.4506593 L184.622857,19.5946154 L184.622857,19.5473626 C184.622857,16.642967 185.034945,14.9484615 182.810769,12.7220879 C181.295385,11.2067033 177.137143,11.1121978 174.616264,11.1121978 C172.375604,11.1121978 169.975604,11.2067033 168.744835,11.5858242 C166.10967,12.3968132 164.00967,13.1946154 163.675604,15.9440659 C163.463516,17.6979121 165.11956,18.8001099 166.981099,18.888022 C169.067912,18.9869231 169.967912,18.2627473 170.26022,16.320989 C170.41956,15.2594505 170.977802,13.9715385 171.395385,13.3847253 C171.871209,12.7220879 173.290989,12.4374725 174.238242,12.531978 C175.287692,12.6374725 176.321758,13.6693407 176.414066,15.6583516 C176.492088,17.2902198 176.697582,19.1110989 173.195385,20.720989 C169.263516,22.5275824 162.115165,22.3814286 162.021758,28.5363736 C161.953626,32.9165934 165.130549,34.6682418 168.90967,34.6682418 C172.844835,34.6682418 173.712967,34.1517582 176.50967,31.4726374 C176.884396,32.6154945 177.338242,34.1715385 180.464615,34.1715385 C181.453626,34.1715385 184.490989,34.1715385 185.933846,34.1616484 C186.79978,34.1561538 187.736044,34.3067033 187.736044,33.4517582 C187.736044,32.953956 187.307473,32.7891209 186.882198,32.7418681 C186.025055,32.6462637 184.829451,30.6352747 184.716264,29.2605495 C184.669011,28.6891209 184.622857,28.0704396 184.622857,27.4506593" id="Fill-22" fill="#243b53"></path>
                    <path d="M79.5363736,56.7058242 C79.5363736,59.0212088 81.0517582,60.6585714 82.6946154,60.6585714 C83.5517582,60.6585714 84.3352747,60.0937363 85.0078022,59.2475824 C85.642967,58.3431868 85.753956,57.5530769 86.0154945,56.4234066 C86.2396703,55.462967 86.2396703,53.5992308 86.2396703,52.5827473 L86.2396703,50.0981319 C83.5891209,51.2278022 79.5363736,51.397033 79.5363736,56.7058242 M94.6594505,57.8772527 C94.7715385,59.251978 95.966044,61.262967 96.8253846,61.3585714 C97.2517582,61.4058242 97.6781319,61.5717582 97.6781319,62.0695604 C97.6781319,62.9245055 96.7418681,62.773956 95.8781319,62.7794505 C94.4352747,62.7893407 91.3957143,62.7893407 90.4067033,62.7893407 C87.2814286,62.7893407 86.8264835,61.2321978 86.4528571,60.0893407 C83.6572527,62.7695604 82.7869231,63.286044 78.853956,63.286044 C75.0726374,63.286044 71.8957143,61.5343956 71.9638462,57.1541758 C72.0594505,50.9992308 79.2067033,51.1453846 83.1385714,49.3387912 C86.642967,47.7289011 86.4363736,45.908022 86.3583516,44.2750549 C86.2627473,42.2871429 85.2297802,41.2552747 84.1803297,41.1497802 C83.231978,41.0552747 81.8121978,41.3398901 81.3396703,42.0025275 C80.9198901,42.5893407 80.3616484,43.8761538 80.2012088,44.9387912 C79.9121978,46.8794505 79.01,47.6047253 76.9253846,47.5058242 C75.0627473,47.4168132 73.4056044,46.3157143 73.6187912,44.5618681 C73.9528571,41.8135165 76.0517582,41.0146154 78.688022,40.2036264 C79.9187912,39.8245055 82.3187912,39.73 84.5583516,39.73 C87.0792308,39.73 91.2385714,39.8245055 92.7528571,41.3398901 C94.9792308,43.5651648 94.566044,45.2596703 94.566044,48.1651648 L94.7056044,48.2124176 L94.566044,56.0684615 C94.566044,56.6871429 94.6132967,57.3058242 94.6594505,57.8772527" id="Fill-24" fill="#243b53"></path>
                    <path d="M125.733077,60.9232967 C127.627582,60.9232967 134.533077,60.0002198 145.167143,71.3397802 C156.527582,83.4606593 171.77044,84.9254945 178.588022,78.2969231 C185.405604,71.6683516 187.534176,58.4672527 178.262747,58.4672527 C175.41989,58.4672527 173.767143,60.4496703 173.956154,62.7221978 C174.147363,64.9958242 176.793516,65.6573626 177.741868,65.4683516 C176.036374,69.3035165 166.377033,66.8848352 166.377033,59.976044 C166.377033,53.3474725 175.278132,50.0265934 179.825385,50.0837363 C190.052857,50.2112088 195.235275,61.5540659 196.301209,66.0364835 C197.248462,70.0134066 197.723187,80.7617582 194.027582,87.6276923 C190.90011,93.4463736 184.18033,97.4683516 182.475934,98.0353846 L154.825385,98.0353846 C150.278132,94.8254945 143.840769,85.9232967 140.81,80.430989 C137.778132,74.9375824 129.189121,63.6705495 125.733077,63.1958242 L125.733077,60.9232967 Z" id="Fill-26" fill="#243b53"></path>
                    <path d="M125.733077,69.2562637 C128.194615,72.476044 131.592418,78.4837363 132.38033,82.8936264 C132.993516,86.3320879 134.471538,91.2848352 135.171538,92.6848352 C136.234176,94.8079121 137.020989,96.5562637 138.120989,98.0353846 L148.858352,98.0353846 C148.858352,98.0353846 141.877033,89.0562637 138.158352,81.2837363 C134.242967,73.1079121 127.627582,65.6573626 125.733077,64.9013187 L125.733077,69.2562637 Z" id="Fill-28" fill="#243b53"></path>
                    <path d="M126.178462,44.4457143 L126.178462,95.0149451 C126.178462,96.7665934 127.552088,97.8556044 129.019121,97.8556044 L192.701538,97.8556044 C194.16967,97.8556044 195.543297,96.7665934 195.543297,95.0149451 L195.543297,44.4457143 C195.543297,42.6940659 194.16967,41.6050549 192.701538,41.6050549 L129.019121,41.6050549 C127.552088,41.6050549 126.178462,42.6940659 126.178462,44.4457143 L126.178462,44.4457143 Z M129.019121,99.56 C126.51033,99.56 124.472967,97.5248352 124.472967,95.0149451 L124.472967,44.4457143 C124.472967,41.9347253 126.51033,39.9006593 129.019121,39.9006593 L192.701538,39.9006593 C195.213626,39.9006593 197.248791,41.9347253 197.248791,44.4457143 L197.248791,95.0149451 C197.248791,97.5248352 195.213626,99.56 192.701538,99.56 L129.019121,99.56 Z" id="Fill-30" fill="#243b53"></path>
                    <path d="M126.178462,44.4457143 L126.178462,95.0149451 C126.178462,96.7665934 127.552088,97.8556044 129.019121,97.8556044 L192.701538,97.8556044 C194.16967,97.8556044 195.543297,96.7665934 195.543297,95.0149451 L195.543297,44.4457143 C195.543297,42.6940659 194.16967,41.6050549 192.701538,41.6050549 L129.019121,41.6050549 C127.552088,41.6050549 126.178462,42.6940659 126.178462,44.4457143 Z" id="Stroke-32" stroke="#D0D2D3" stroke-width="0.632"></path>
                    <path d="M43.5602198,35.3963736 C41.6821978,33.5842857 39.3624176,32.1864835 36.7558242,31.3018681 L36.6415385,31.0743956 C38.6865934,29.5974725 40.9602198,28.9161538 42.7778022,26.7568132 L37.7404396,29.8710989 L35.8316484,31.1732967 L43.5602198,35.3963736 Z" id="Fill-34" fill="#243b53"></path>
                    <path d="M34.5961538,62.7337363 C36.1445055,62.7227473 38.1906593,61.8271429 39.9357143,60.9623077 C41.1686813,60.2820879 42.2895604,59.448022 43.282967,58.4930769" id="Fill-36" fill="#243b53"></path>
                    <path d="M192.727473,16.3796703 L192.727473,14.4104396 L194.038462,14.4104396 C194.710989,14.4104396 195.426374,14.5565934 195.426374,15.3445055 C195.426374,16.3203297 194.696703,16.3796703 193.881319,16.3796703 L192.727473,16.3796703 Z M192.727473,17.1961538 L193.836264,17.1961538 L195.512088,19.9521978 L196.592308,19.9521978 L194.783516,17.1521978 C195.717582,17.0357143 196.431868,16.5401099 196.431868,15.4016484 C196.431868,14.1478022 195.689011,13.5950549 194.186813,13.5950549 L191.765934,13.5950549 L191.765934,19.9521978 L192.727473,19.9521978 L192.727473,17.1961538 Z M193.894505,22.2851648 C196.898901,22.2851648 199.463736,19.9521978 199.463736,16.7587912 C199.463736,13.5950549 196.898901,11.260989 193.894505,11.260989 C190.861538,11.260989 188.295604,13.5950549 188.295604,16.7587912 C188.295604,19.9521978 190.861538,22.2851648 193.894505,22.2851648 L193.894505,22.2851648 Z M189.404396,16.7587912 C189.404396,14.1478022 191.372527,12.1796703 193.894505,12.1796703 C196.387912,12.1796703 198.356044,14.1478022 198.356044,16.7587912 C198.356044,19.4115385 196.387912,21.3664835 193.894505,21.3664835 C191.372527,21.3664835 189.404396,19.4115385 189.404396,16.7587912 L189.404396,16.7587912 Z" id="Fill-38" fill="#243b53"></path>
                </g>
            </g>
        </g>
    </g>
</svg>