<?xml version="1.0"?>

<svg version="1.1" id="Layer_1" xmlns="http://www.w3.org/2000/svg" xmlns:xlink="http://www.w3.org/1999/xlink" x="0px" y="0px" viewBox="0 0 113.3 35.5" enable-background="new 0 0 113.3 35.5" xml:space="preserve">
<g>
&#x9;<defs>
&#x9;&#x9;<rect id="SVGID_1_" x="0.929" y="0.419" width="111.442" height="34.662"></rect>
&#x9;</defs>
&#x9;<clipPath id="SVGID_00000042009085952301902150000012848741303874925716_">
&#x9;&#x9;<use xlink:href="#SVGID_1_" overflow="visible"></use>
&#x9;</clipPath>
&#x9;<path clip-path="url(#SVGID_00000042009085952301902150000012848741303874925716_)" fill="#205DA9" d="M20.927,25.014&#xA;&#x9;&#x9;c0-1.851-0.331-3.827-1.191-5.549h-6.13c0.199,0.162,0.386,0.346,0.548,0.57c0.589,0.857,1.231,2.195,1.231,4.899&#xA;&#x9;&#x9;c0,2.677-0.642,6.211-4.47,6.211c-3.561,0-4.471-3.052-4.471-6.131c0-3.319,0.964-6.371,4.498-6.371c0.398,0,0.805,0.043,1.2,0.134&#xA;&#x9;&#x9;v-3.969c-0.329-0.024-0.66-0.047-1.013-0.047c-1.419,0-5.113,0.215-7.549,2.677c-2.437,2.463-2.651,6.319-2.651,7.604&#xA;&#x9;&#x9;c0,7.2,4.792,10.039,9.932,10.039C15.465,35.081,20.927,32.724,20.927,25.014 M31.502,27.799c0,0.883,0,4.096-2.517,4.096&#xA;&#x9;&#x9;c-2.382,0-2.543-3.186-2.543-4.07c0-0.99,0.161-4.069,2.651-4.069C31.341,23.756,31.502,26.433,31.502,27.799 M34.955,33.126&#xA;&#x9;&#x9;c1.125-1.205,1.74-2.677,1.74-5.301c0-1.446-0.133-2.918-0.856-4.176c-0.857-1.445-2.41-2.811-4.98-2.811&#xA;&#x9;&#x9;c-0.482,0-2.864,0.027-4.256,1.767v-4.548c-0.271,0.221-0.567,0.434-0.923,0.624c-1.214,0.639-2.706,0.755-4.137,0.777v11.821&#xA;&#x9;&#x9;c0,0.08-0.027,1.82-0.16,3.346h4.711l0.161-1.981c1.66,2.196,3.587,2.276,4.47,2.276C31.742,34.92,33.456,34.759,34.955,33.126&#xA;&#x9;&#x9; M41.809,24.479c0-0.83,0.723-1.178,1.499-1.178c0.803,0,1.178,0.294,1.392,0.723c0.188,0.402,0.188,0.91,0.188,1.312h4.765&#xA;&#x9;&#x9;c-0.214-3.748-3.239-4.525-6.131-4.525c-1.981,0-3.587,0.322-4.765,1.152c-0.883,0.589-1.606,1.713-1.606,3.051&#xA;&#x9;&#x9;c0,2.758,2.436,3.427,3.266,3.641l2.731,0.776c1.124,0.295,1.9,0.563,1.9,1.5c0,0.589-0.374,1.365-1.526,1.365&#xA;&#x9;&#x9;c-0.856,0-1.284-0.401-1.472-0.83c-0.214-0.455-0.214-0.963-0.214-1.204h-4.98C36.803,34.599,40.738,35,43.469,35&#xA;&#x9;&#x9;c1.178,0,6.451,0,6.451-4.551c0-2.624-1.874-3.347-3.159-3.694l-3.587-0.991C42.371,25.55,41.809,25.255,41.809,24.479&#xA;&#x9;&#x9; M54.66,26.192c0.053-0.642,0.24-2.811,2.435-2.811c2.196,0,2.357,2.035,2.41,2.811H54.66z M54.606,28.923h9.637&#xA;&#x9;&#x9;c0-2.355-0.16-3.64-0.749-4.792c-0.911-1.901-2.651-3.427-6.399-3.427c-4.952,0-7.147,2.918-7.147,7.416&#xA;&#x9;&#x9;c0,4.444,2.516,6.8,7.201,6.8c3.48,0,6.639-1.312,7.014-4.685h-4.685c-0.134,1.258-0.963,1.954-2.302,1.954&#xA;&#x9;&#x9;C54.606,32.189,54.606,29.646,54.606,28.923 M84.59,34.625l5.086-13.439h-4.739l-2.864,9.423l-2.677-9.423h-4.979v-0.107&#xA;&#x9;&#x9;c-1.151-0.027-3.587-0.107-4.739,2.891l-0.08-2.784h-4.899l0.134,2.865v10.574h5.006v-5.702c0-1.446,0.428-3.614,3.507-3.614&#xA;&#x9;&#x9;c0.348,0,0.482,0.027,1.071,0.08v-3.076l4.684,12.312H84.59z M92.755,26.192c0.053-0.642,0.241-2.811,2.436-2.811&#xA;&#x9;&#x9;s2.356,2.035,2.409,2.811H92.755z M92.701,28.923h9.638c0-2.355-0.161-3.64-0.75-4.792c-0.91-1.901-2.65-3.427-6.398-3.427&#xA;&#x9;&#x9;c-4.952,0-7.148,2.918-7.148,7.416c0,4.444,2.517,6.8,7.201,6.8c3.48,0,6.639-1.312,7.014-4.685h-4.684&#xA;&#x9;&#x9;c-0.135,1.258-0.964,1.954-2.303,1.954C92.701,32.189,92.701,29.646,92.701,28.923 M112.244,25.389v-4.31&#xA;&#x9;&#x9;c-1.151-0.027-3.587-0.107-4.738,2.891l-0.081-2.784h-4.899l0.134,2.865v10.574h5.006v-5.702c0-1.446,0.428-3.614,3.508-3.614&#xA;&#x9;&#x9;C111.521,25.309,111.655,25.336,112.244,25.389"></path>
&#x9;<path clip-path="url(#SVGID_00000042009085952301902150000012848741303874925716_)" fill="#ADC0DB" d="M59.744,6.446h-4.703v12.557&#xA;&#x9;&#x9;h4.703V6.446z M22.875,13.6c0,2.101-2.001,2.101-2.576,2.101h-2.777v-4.277h2.627C20.824,11.424,22.875,11.424,22.875,13.6&#xA;&#x9;&#x9; M22.551,6.246c0,0.775-0.376,1.425-0.951,1.75c-0.425,0.226-0.951,0.226-1.751,0.226h-2.351V4.219h2.726&#xA;&#x9;&#x9;c0.526,0,1.076,0,1.626,0.426C22.35,5.045,22.551,5.695,22.551,6.246 M23.651,9.672v-0.05c0.9-0.224,3.852-0.9,3.852-4.102&#xA;&#x9;&#x9;c0-1.601-0.8-2.576-1.376-3.102c-1.651-1.476-3.977-1.476-6.253-1.476h-7.23v18.061h7.98c1.626,0,3.452,0,4.878-0.751&#xA;&#x9;&#x9;c1.976-1.05,2.501-2.701,2.501-4.102C28.003,10.448,24.777,9.873,23.651,9.672 M37.358,19.003h4.627&#xA;&#x9;&#x9;c-0.025-0.976-0.025-1.101-0.075-2.177V6.446h-4.703v7.278c0,0.701,0,2.502-1.976,2.502c-1.875,0-1.875-1.751-1.875-2.451V6.446&#xA;&#x9;&#x9;h-4.678v7.079c0,2.401,0.275,5.702,4.628,5.702c1.1,0,2.676-0.149,3.952-2.175L37.358,19.003z M47.012,9.522&#xA;&#x9;&#x9;c0-0.775,0.676-1.1,1.401-1.1c0.751,0,1.101,0.275,1.301,0.675c0.175,0.376,0.175,0.851,0.175,1.226h4.452&#xA;&#x9;&#x9;c-0.199-3.502-3.026-4.228-5.728-4.228c-1.851,0-3.351,0.301-4.452,1.076c-0.826,0.551-1.501,1.601-1.501,2.852&#xA;&#x9;&#x9;c0,2.576,2.276,3.201,3.052,3.402l2.551,0.725c1.051,0.275,1.776,0.525,1.776,1.401c0,0.55-0.35,1.276-1.426,1.276&#xA;&#x9;&#x9;c-0.8,0-1.2-0.376-1.376-0.776c-0.2-0.425-0.2-0.9-0.2-1.125h-4.652c-0.05,4.051,3.627,4.427,6.178,4.427&#xA;&#x9;&#x9;c1.101,0,6.029,0,6.029-4.253c0-2.451-1.751-3.126-2.952-3.451l-3.352-0.926C47.538,10.523,47.012,10.248,47.012,9.522&#xA;&#x9;&#x9; M54.997,5.795h4.799V3.902h-4.799V5.795z M69.349,19.003h4.703v-7.605c0-1.726,0-5.228-4.603-5.228&#xA;&#x9;&#x9;c-2.601,0-3.602,1.252-4.177,2.202l-0.05-1.926h-4.703l0.125,2.676v9.881h4.678v-7.204c0-0.45,0-2.652,2.101-2.652&#xA;&#x9;&#x9;c1.926,0,1.926,1.776,1.926,2.652V19.003z M78.704,11.123c0.05-0.6,0.225-2.626,2.276-2.626s2.201,1.901,2.251,2.626H78.704z&#xA;&#x9;&#x9; M78.654,13.675h9.005c0-2.202-0.15-3.402-0.701-4.478c-0.85-1.776-2.476-3.202-5.978-3.202c-4.628,0-6.679,2.727-6.679,6.929&#xA;&#x9;&#x9;c0,4.152,2.352,6.354,6.729,6.354c3.252,0,6.204-1.226,6.554-4.377h-4.378c-0.125,1.175-0.9,1.826-2.151,1.826&#xA;&#x9;&#x9;C78.654,16.727,78.654,14.35,78.654,13.675 M92.436,9.522c0-0.775,0.675-1.1,1.4-1.1c0.751,0,1.101,0.275,1.302,0.675&#xA;&#x9;&#x9;c0.174,0.376,0.174,0.851,0.174,1.226h4.453c-0.2-3.502-3.027-4.228-5.728-4.228c-1.851,0-3.352,0.301-4.453,1.076&#xA;&#x9;&#x9;c-0.825,0.551-1.5,1.601-1.5,2.852c0,2.576,2.275,3.201,3.051,3.402l2.551,0.725c1.051,0.275,1.776,0.525,1.776,1.401&#xA;&#x9;&#x9;c0,0.55-0.35,1.276-1.425,1.276c-0.801,0-1.201-0.376-1.376-0.776c-0.2-0.425-0.2-0.9-0.2-1.125h-4.653&#xA;&#x9;&#x9;c-0.05,4.051,3.627,4.427,6.179,4.427c1.1,0,6.028,0,6.028-4.253c0-2.451-1.751-3.126-2.952-3.451l-3.352-0.926&#xA;&#x9;&#x9;C92.961,10.523,92.436,10.248,92.436,9.522 M107.669,10.323h4.452c-0.2-3.502-3.026-4.228-5.728-4.228&#xA;&#x9;&#x9;c-1.851,0-3.352,0.301-4.452,1.076c-0.826,0.551-1.501,1.601-1.501,2.852c0,2.576,2.276,3.201,3.052,3.402l2.551,0.725&#xA;&#x9;&#x9;c1.051,0.275,1.776,0.525,1.776,1.401c0,0.55-0.35,1.276-1.426,1.276c-0.8,0-1.2-0.376-1.376-0.776c-0.2-0.425-0.2-0.9-0.2-1.125&#xA;&#x9;&#x9;h-4.652c-0.051,4.051,3.627,4.427,6.178,4.427c1.101,0,6.028,0,6.028-4.253c0-2.451-1.75-3.126-2.951-3.451l-3.352-0.926&#xA;&#x9;&#x9;c-0.75-0.2-1.276-0.475-1.276-1.201c0-0.775,0.676-1.1,1.401-1.1c0.75,0,1.101,0.275,1.301,0.675&#xA;&#x9;&#x9;C107.669,9.473,107.669,9.948,107.669,10.323"></path>
&#x9;<path clip-path="url(#SVGID_00000042009085952301902150000012848741303874925716_)" fill="#205DA9" d="M109.421,0.756h1.513V0.472&#xA;&#x9;&#x9;h-1.835v2.529h1.873V2.717h-1.551V1.833h1.376V1.56h-1.376V0.756z M107.643,0.756h0.815V0.472h-1.971v0.284h0.83v2.245h0.326V0.756&#xA;&#x9;&#x9;z M105.842,0.472h-0.322v2.529h0.322V0.472z M104.326,0.472v1.513c0,0.261-0.008,0.337-0.046,0.44&#xA;&#x9;&#x9;c-0.087,0.22-0.3,0.341-0.611,0.341c-0.288,0-0.497-0.106-0.591-0.3c-0.053-0.11-0.065-0.193-0.065-0.481V0.472h-0.322v1.524&#xA;&#x9;&#x9;c0,0.357,0.023,0.489,0.11,0.637c0.155,0.266,0.47,0.417,0.868,0.417c0.368,0,0.664-0.129,0.834-0.364&#xA;&#x9;&#x9;c0.114-0.159,0.144-0.299,0.144-0.69V0.472H104.326z M101.864,1.211c-0.064-0.531-0.382-0.792-0.959-0.792&#xA;&#x9;&#x9;c-0.538,0-0.891,0.273-0.891,0.682c0,0.22,0.091,0.376,0.284,0.497c0.114,0.072,0.236,0.114,0.592,0.197&#xA;&#x9;&#x9;c0.254,0.061,0.36,0.091,0.467,0.137c0.197,0.079,0.288,0.193,0.288,0.368c0,0.276-0.262,0.466-0.641,0.466&#xA;&#x9;&#x9;c-0.247,0-0.467-0.08-0.599-0.22c-0.099-0.099-0.148-0.209-0.175-0.394h-0.322c0.065,0.569,0.459,0.898,1.073,0.898&#xA;&#x9;&#x9;c0.603,0,0.986-0.299,0.986-0.773c0-0.235-0.095-0.41-0.28-0.535c-0.118-0.076-0.281-0.133-0.657-0.22&#xA;&#x9;&#x9;c-0.276-0.064-0.386-0.099-0.474-0.14c-0.148-0.068-0.22-0.171-0.22-0.3c0-0.231,0.217-0.379,0.554-0.379&#xA;&#x9;&#x9;c0.402,0,0.607,0.159,0.652,0.508H101.864z M98.194,2.212h1.054v-0.31h-1.054V2.212z M97.447,1.185&#xA;&#x9;&#x9;c-0.083-0.467-0.474-0.762-1.008-0.762c-0.713,0-1.16,0.511-1.16,1.327c0,0.807,0.435,1.3,1.152,1.3&#xA;&#x9;&#x9;c0.618,0,1.009-0.36,1.065-0.986h-0.314c-0.031,0.433-0.315,0.702-0.747,0.702c-0.531,0-0.834-0.368-0.834-1.016&#xA;&#x9;&#x9;c0-0.664,0.307-1.043,0.841-1.043c0.361,0,0.596,0.163,0.69,0.478H97.447z M91.779,0.756h1.513V0.472h-1.835v2.529h1.873V2.717&#xA;&#x9;&#x9;h-1.551V1.833h1.376V1.56h-1.376V0.756z M88.863,0.472h-0.322v2.529h0.322V1.806h1.377v1.195h0.322V0.472H90.24v1.062h-1.377V0.472&#xA;&#x9;&#x9;z M87.085,0.756H87.9V0.472h-1.971v0.284h0.83v2.245h0.326V0.756z M82.486,1.678V0.756h0.739c0.247,0,0.334,0.011,0.406,0.042&#xA;&#x9;&#x9;c0.129,0.06,0.205,0.201,0.205,0.39c0,0.217-0.106,0.376-0.304,0.444c-0.098,0.034-0.212,0.046-0.504,0.046H82.486z M82.486,1.931&#xA;&#x9;&#x9;h0.622c0.269,0,0.345,0.012,0.443,0.08c0.141,0.095,0.175,0.194,0.213,0.618c0.019,0.251,0.026,0.289,0.061,0.372h0.374&#xA;&#x9;&#x9;c-0.09-0.133-0.094-0.148-0.132-0.565c-0.034-0.398-0.117-0.542-0.379-0.641c0.326-0.132,0.47-0.33,0.47-0.633&#xA;&#x9;&#x9;c0-0.247-0.099-0.448-0.284-0.573c-0.14-0.098-0.25-0.117-0.607-0.117h-1.103v2.529h0.322V1.931z M80.162,0.707&#xA;&#x9;&#x9;c0.542,0,0.883,0.398,0.883,1.031c0,0.637-0.341,1.028-0.899,1.028c-0.557,0-0.898-0.391-0.898-1.028&#xA;&#x9;&#x9;C79.248,1.09,79.585,0.707,80.162,0.707 M80.162,0.423c-0.748,0-1.236,0.523-1.236,1.315c0,0.782,0.492,1.312,1.22,1.312&#xA;&#x9;&#x9;c0.729,0,1.221-0.53,1.221-1.312C81.367,0.961,80.875,0.423,80.162,0.423 M76.984,0.756h1.426V0.472h-1.748v2.529h0.322V1.818&#xA;&#x9;&#x9;h1.179V1.545h-1.179V0.756z M72.916,1.678V0.756h0.739c0.247,0,0.334,0.011,0.406,0.042c0.129,0.06,0.205,0.201,0.205,0.39&#xA;&#x9;&#x9;c0,0.217-0.106,0.376-0.304,0.444c-0.098,0.034-0.212,0.046-0.504,0.046H72.916z M72.916,1.931h0.622&#xA;&#x9;&#x9;c0.269,0,0.345,0.012,0.443,0.08c0.141,0.095,0.175,0.194,0.213,0.618c0.019,0.251,0.026,0.289,0.061,0.372h0.374&#xA;&#x9;&#x9;c-0.091-0.133-0.094-0.148-0.132-0.565c-0.034-0.398-0.118-0.542-0.379-0.641c0.326-0.132,0.47-0.33,0.47-0.633&#xA;&#x9;&#x9;c0-0.247-0.099-0.448-0.284-0.573c-0.141-0.098-0.251-0.117-0.607-0.117h-1.103v2.529h0.322V1.931z M70.284,0.756h1.513V0.472&#xA;&#x9;&#x9;h-1.835v2.529h1.873V2.717h-1.551V1.833h1.377V1.56h-1.377V0.756z M67.717,1.678V0.756h0.596c0.209,0,0.319,0.015,0.394,0.049&#xA;&#x9;&#x9;c0.156,0.072,0.239,0.213,0.239,0.406c0,0.197-0.091,0.345-0.254,0.414c-0.087,0.038-0.197,0.053-0.387,0.053H67.717z M67.717,1.95&#xA;&#x9;&#x9;h0.615c0.216,0,0.394-0.019,0.493-0.056c0.284-0.106,0.443-0.345,0.443-0.675c0-0.304-0.14-0.546-0.379-0.664&#xA;&#x9;&#x9;c-0.121-0.06-0.273-0.083-0.565-0.083h-0.928v2.529h0.321V1.95z M65.321,1.97l0.402-1.176l0.402,1.176H65.321z M65.234,2.235h0.978&#xA;&#x9;&#x9;l0.266,0.766h0.36l-0.929-2.529h-0.372l-0.928,2.529h0.36L65.234,2.235z M62.819,1.678V0.756h0.595&#xA;&#x9;&#x9;c0.209,0,0.319,0.015,0.395,0.049c0.155,0.072,0.239,0.213,0.239,0.406c0,0.197-0.091,0.345-0.255,0.414&#xA;&#x9;&#x9;c-0.087,0.038-0.197,0.053-0.386,0.053H62.819z M62.819,1.95h0.614c0.216,0,0.395-0.019,0.493-0.056&#xA;&#x9;&#x9;c0.284-0.106,0.443-0.345,0.443-0.675c0-0.304-0.14-0.546-0.378-0.664c-0.122-0.06-0.273-0.083-0.565-0.083h-0.929v2.529h0.322&#xA;&#x9;&#x9;V1.95z M61.647,1.211c-0.064-0.531-0.382-0.792-0.959-0.792c-0.539,0-0.891,0.273-0.891,0.682c0,0.22,0.091,0.376,0.284,0.497&#xA;&#x9;&#x9;c0.114,0.072,0.235,0.114,0.592,0.197c0.254,0.061,0.36,0.091,0.466,0.137c0.198,0.079,0.289,0.193,0.289,0.368&#xA;&#x9;&#x9;c0,0.276-0.262,0.466-0.641,0.466c-0.247,0-0.467-0.08-0.6-0.22c-0.098-0.099-0.147-0.209-0.174-0.394h-0.322&#xA;&#x9;&#x9;c0.065,0.569,0.458,0.898,1.073,0.898c0.603,0,0.985-0.299,0.985-0.773c0-0.235-0.094-0.41-0.28-0.535&#xA;&#x9;&#x9;c-0.117-0.076-0.28-0.133-0.656-0.22c-0.277-0.064-0.387-0.099-0.474-0.14c-0.148-0.068-0.22-0.171-0.22-0.3&#xA;&#x9;&#x9;c0-0.231,0.216-0.379,0.554-0.379c0.402,0,0.607,0.159,0.652,0.508H61.647z M56.388,0.472h-0.36l0.671,2.529h0.319l0.614-2.222&#xA;&#x9;&#x9;l0.573,2.222h0.307l0.739-2.529h-0.352l-0.546,2.059l-0.52-2.059h-0.394L56.87,2.531L56.388,0.472z M53.931,0.756h1.513V0.472&#xA;&#x9;&#x9;h-1.835v2.529h1.873V2.717h-1.551V1.833h1.377V1.56h-1.377V0.756z M51.069,0.472h-0.345v2.529h0.322V0.953l1.327,2.048h0.341V0.472&#xA;&#x9;&#x9;h-0.322v2.036L51.069,0.472z M48.585,1.211c-0.064-0.531-0.382-0.792-0.959-0.792c-0.538,0-0.891,0.273-0.891,0.682&#xA;&#x9;&#x9;c0,0.22,0.091,0.376,0.284,0.497c0.114,0.072,0.235,0.114,0.592,0.197c0.254,0.061,0.36,0.091,0.467,0.137&#xA;&#x9;&#x9;c0.197,0.079,0.288,0.193,0.288,0.368c0,0.276-0.262,0.466-0.641,0.466c-0.247,0-0.467-0.08-0.6-0.22&#xA;&#x9;&#x9;c-0.098-0.099-0.147-0.209-0.174-0.394h-0.322c0.065,0.569,0.459,0.898,1.073,0.898c0.603,0,0.986-0.299,0.986-0.773&#xA;&#x9;&#x9;c0-0.235-0.095-0.41-0.281-0.535c-0.117-0.076-0.28-0.133-0.656-0.22c-0.277-0.064-0.387-0.099-0.474-0.14&#xA;&#x9;&#x9;c-0.148-0.068-0.22-0.171-0.22-0.3c0-0.231,0.216-0.379,0.554-0.379c0.402,0,0.607,0.159,0.652,0.508H48.585z M45.621,0.472v0.345&#xA;&#x9;&#x9;h0.162c-0.003,0.17-0.06,0.284-0.162,0.322v0.155c0.212-0.072,0.314-0.238,0.314-0.527V0.472H45.621z M43.77,1.97l0.402-1.176&#xA;&#x9;&#x9;l0.402,1.176H43.77z M43.683,2.235h0.978l0.266,0.766h0.36l-0.929-2.529h-0.372l-0.929,2.529h0.361L43.683,2.235z M40.903,2.717&#xA;&#x9;&#x9;V0.756h0.509c0.265,0,0.417,0.03,0.534,0.102c0.236,0.145,0.349,0.425,0.349,0.858c0,0.466-0.117,0.769-0.352,0.906&#xA;&#x9;&#x9;c-0.114,0.064-0.273,0.095-0.49,0.095H40.903z M40.582,3.001h0.89c0.763,0,1.145-0.425,1.145-1.27c0-0.509-0.128-0.842-0.413-1.062&#xA;&#x9;&#x9;c-0.197-0.151-0.371-0.197-0.777-0.197h-0.845V3.001z M39.683,0.472h-0.322v2.529h0.322V0.472z M36.846,1.678V0.756h0.74&#xA;&#x9;&#x9;c0.247,0,0.334,0.011,0.406,0.042c0.129,0.06,0.205,0.201,0.205,0.39c0,0.217-0.106,0.376-0.304,0.444&#xA;&#x9;&#x9;c-0.098,0.034-0.212,0.046-0.504,0.046H36.846z M36.846,1.931h0.623c0.269,0,0.345,0.012,0.443,0.08&#xA;&#x9;&#x9;c0.141,0.095,0.175,0.194,0.213,0.618c0.019,0.251,0.026,0.289,0.06,0.372h0.375c-0.091-0.133-0.094-0.148-0.132-0.565&#xA;&#x9;&#x9;c-0.034-0.398-0.118-0.542-0.379-0.641c0.326-0.132,0.47-0.33,0.47-0.633c0-0.247-0.099-0.448-0.284-0.573&#xA;&#x9;&#x9;c-0.141-0.098-0.251-0.117-0.607-0.117h-1.103v2.529h0.321V1.931z M34.522,0.707c0.543,0,0.884,0.398,0.884,1.031&#xA;&#x9;&#x9;c0,0.637-0.341,1.028-0.899,1.028c-0.557,0-0.899-0.391-0.899-1.028C33.608,1.09,33.946,0.707,34.522,0.707 M34.522,0.423&#xA;&#x9;&#x9;c-0.747,0-1.235,0.523-1.235,1.315c0,0.782,0.492,1.312,1.22,1.312c0.728,0,1.221-0.53,1.221-1.312&#xA;&#x9;&#x9;C35.728,0.961,35.235,0.423,34.522,0.423 M31.534,0.472h-0.321v2.529h1.679V2.717h-1.358V0.472z M29.104,0.756h1.426V0.472h-1.748&#xA;&#x9;&#x9;v2.529h0.322V1.818h1.179V1.545h-1.179V0.756z"></path>
</g>
</svg>