<?xml version="1.0" encoding="UTF-8"?> <svg xmlns="http://www.w3.org/2000/svg" xmlns:xlink="http://www.w3.org/1999/xlink" version="1.1" id="Layer_1" x="0px" y="0px" viewBox="0 0 971 184" style="enable-background:new 0 0 971 184;" xml:space="preserve"> <style type="text/css"> .st0{fill:#004785;} .st1{fill:#009366;} .st2{fill:none;stroke:#004785;stroke-width:2;stroke-dasharray:7.9048,7.9048;} </style> <g> <g> <path class="st0" d="M8.1,8.3h115v30.9H40.9v45.2h68.6v30.7H40.9v62.4H8.1V8.3z"></path> <path class="st0" d="M126.3,92.6c0-51.7,39.9-87.3,91.1-87.3c15.2,0,36,3.4,51.5,10.9v33.8C256,41.6,237.4,37.5,222,37.5 c-36.7,0-61.9,22.5-61.9,55.6c0,32.6,24.4,55.3,60.4,55.3c9.2,0,17.6-1.5,25.9-5.3v-33.6H213V80.8h65.3v83.1 c-14.3,9.9-40.1,16.4-61.9,16.4C164.2,180.3,126.3,143.4,126.3,92.6z"></path> </g> <g> <path class="st0" d="M295.2,92.9c0-46.6,35.3-87.5,88.7-87.5c15.7,0,35,3.6,47.6,10.6v33.1c-12.3-7.3-27.8-11.8-43.7-11.8 C351,37.3,330,62.2,330,92.9c0,32.1,22.5,55.1,58.5,55.1c15.5,0,31.2-4.4,43-11.4V170c-11.4,7-32.4,10.4-47.9,10.4 C331,180.3,295.2,140.2,295.2,92.9z"></path> </g> <g> <path class="st1" d="M450.6,104V8.3h33.1v94.3c0,32.4,16.9,47.1,39.6,47.1c22.7,0,39.6-14.7,39.6-47.1V8.3h33.1V104 c0,52.2-28.8,76.4-72.8,76.4C479.4,180.3,450.6,156.2,450.6,104z"></path> </g> <line class="st2" x1="624" y1="7.8" x2="624" y2="173.8"></line> <g> <path d="M652.1,128.8v-16.3c8.5,8.6,20.3,15.4,34.4,15.4c18.6,0,30.8-13,30.8-28.4c0-15.6-12.8-28.4-32.7-28.4 c-5.8,0-10.5,0.4-13.9,1.1v-9.4L712.6,21H654V7.9h77.6v11.6l-40,39.8h0.2c22.5,0,40.6,18,40.6,40.6c0,23.7-19.7,41.7-44.5,41.7 C673.7,141.6,660.5,136.9,652.1,128.8z"></path> <path d="M741.5,96c0-14.1,6.9-26.9,20.3-45.1l31.4-43h17.1L776,53.2c3.6-1.1,7.7-1.7,11.5-1.7c25.3,0,46,19.9,46,44.5 c0,25.2-20.7,45.6-45.8,45.6C762.3,141.6,741.5,121.1,741.5,96z M787.7,127.9c17.5,0,31.5-14.1,31.5-31.9 c0-17.7-14.1-31.7-31.7-31.7c-17.8,0-31.7,13.7-31.7,31.5C755.7,113.8,770,127.9,787.7,127.9z"></path> <path d="M841.7,73.6c0-37.6,27-67.8,60.5-67.8s60.5,30.2,60.5,67.8c0,37.6-27,67.8-60.5,67.8S841.7,111.2,841.7,73.6z M902.2,127.7c25.2,0,45.8-24.4,45.8-54.1s-20.7-54.1-45.8-54.1S856.4,44,856.4,73.6S877,127.7,902.2,127.7z"></path> </g> <g> <path d="M650.6,157.2h2.4l9.3,13.3v-13.3h2.3v17.1h-2.4l-9.3-13.2v13.2h-2.3V157.2z"></path> <path d="M668.9,157.2h11.2v2.2h-8.8v5.1h7.6v2.2h-7.6v5.5h9.2v2.2h-11.5V157.2z"></path> <path d="M681.8,157.2h2.5l4.3,13.7l4.3-13.7h2.6l4.3,13.8l4.3-13.8h2.5l-5.6,17.1h-2.4l-4.5-13.8l-4.5,13.8h-2.4L681.8,157.2z"></path> <path d="M708,173.1v-2.6c1.4,1.2,3.2,2,5.2,2c2.3,0,3.9-1,3.9-2.6c0-3.6-8.6-2.6-8.6-8.1c0-2.8,2.3-4.8,5.7-4.8 c1.6,0,3.4,0.4,4.7,1.2v2.5c-1.4-1-3-1.6-4.6-1.6c-2,0-3.4,0.9-3.4,2.4c0,3.6,8.7,2.5,8.7,8.2c0,3-2.4,4.9-6.2,4.9 C711.1,174.7,709.2,174,708,173.1z"></path> </g> <g> <path d="M727.1,165.8c0-4.9,3.9-8.8,8.7-8.8c4.8,0,8.7,3.9,8.7,8.8c0,4.9-3.9,8.9-8.7,8.9C731,174.7,727.1,170.7,727.1,165.8z M735.8,172.4c3.5,0,6.3-2.9,6.3-6.6c0-3.6-2.8-6.6-6.3-6.6c-3.5,0-6.3,2.9-6.3,6.6C729.5,169.5,732.3,172.4,735.8,172.4z"></path> <path d="M747.9,157.2h11.4v2.2h-9.1v5.7h7.6v2.2h-7.6v7h-2.3V157.2z"></path> </g> <path d="M771,174.4h2.3v-14.9h5.4v-2.2h-13.1v2.2h5.4V174.4z M792.4,174.4h2.3v-17.1h-2.3v7.3h-8.8v-7.3h-2.3v17.1h2.3v-7.6h8.8 V174.4z M799.2,174.4h11.5v-2.2h-9.2v-5.5h7.6v-2.2h-7.6v-5.1h8.8v-2.2h-11.2V174.4z M827.1,174.7c4.4,0,7.1-2.7,7.1-7.7v-9.8h-2.3 v9.6c0,3.6-1.9,5.6-4.8,5.6s-4.8-2-4.8-5.6v-9.6h-2.3v9.8C819.9,172,822.7,174.7,827.1,174.7L827.1,174.7z M838.4,174.4h2.3v-13.2 l9.3,13.2h2.4v-17.1h-2.3v13.3l-9.3-13.3h-2.4V174.4z M856.8,174.4h2.4v-17.1h-2.4V174.4z M868.5,174.4h2.6l7.1-17.1h-2.6 l-5.7,14.4l-5.9-14.4h-2.6L868.5,174.4z M880.4,174.4H892v-2.2h-9.2v-5.5h7.6v-2.2h-7.6v-5.1h8.8v-2.2h-11.2V174.4z M895.2,174.4 h2.3v-6.6h3.5l4.3,6.6h2.8l-4.6-6.9c2.3-0.8,3.9-2.7,3.9-5.1c0-3-2.4-5.1-6.1-5.1h-6.2V174.4z M897.5,165.7v-6.3h3.8 c2.1,0,3.8,1.1,3.8,3.1c0,2-1.6,3.2-3.8,3.2H897.5z M915.1,174.7c3.8,0,6.2-2,6.2-4.9c0-5.7-8.7-4.5-8.7-8.2c0-1.5,1.5-2.4,3.4-2.4 c1.5,0,3.1,0.6,4.6,1.6v-2.5c-1.3-0.8-3.1-1.2-4.7-1.2c-3.4,0-5.7,2-5.7,4.8c0,5.5,8.6,4.6,8.6,8.1c0,1.5-1.6,2.6-3.9,2.6 c-2,0-3.8-0.8-5.2-2v2.6C911,174,912.8,174.7,915.1,174.7L915.1,174.7z M924.6,174.4h2.4v-17.1h-2.4V174.4z M934.9,174.4h2.3v-14.9 h5.4v-2.2h-13.1v2.2h5.4V174.4z M949.6,174.4h2.3v-6.9l6.7-10.3h-2.9l-4.9,7.9l-4.9-7.9h-2.9l6.7,10.3V174.4z"></path> </g> </svg> 