<?xml version="1.0" encoding="UTF-8"?>
<svg id="Layer_1" xmlns="http://www.w3.org/2000/svg" version="1.1" viewBox="0 0 584.11 95.76">
  <!-- Generator: Adobe Illustrator 29.6.1, SVG Export Plug-In . SVG Version: 2.1.1 Build 9)  -->
  <defs>
    <style>
      .st0 {
        fill: #fff;
      }

      .st1 {
        fill: #004751;
      }

      .st2 {
        fill: #c6b16a;
      }
    </style>
  </defs>
  <path class="st0" d="M324.032,11.09l1.848-7.024h12.199l.37,8.133,2.218,3.697,7.393-1.109,7.024,4.066-4.436,16.265-3.327,7.393-1.479,9.611s-11.783,7.024-12.545,7.024-12.222-4.436-12.222-4.436l-5.175-6.284-8.503-17.005-2.218-11.46,6.654-2.957,12.199-5.915h0Z"/>
  <path class="st2" d="M363.009,31.186c0-6.687-2.105-12.883-5.711-17.949-.352.364-.745.7-1.201.981-1.435.877-2.616,1.066-3.264.141-.648-1.111.169-2.19,1.604-3.061.292-.181.679-.431.976-.514C349.712,4.189,341.256,0,331.822,0c-9.472,0-17.958,4.223-23.611,10.954.349.172.639.311.932.491,1.434.871,2.252,1.951,1.604,3.061-.648.925-1.829.736-3.264-.141-.456-.281-.849-.617-1.207-.999-3.566,5.027-5.64,11.181-5.64,17.82,0,8.243,3.197,15.738,8.431,21.287.34-.379,1.026-.886,1.482-1.167,1.435-.877,2.616-1.066,3.264-.141.648,1.11-.169,2.19-1.604,3.061-.292.181-.583.319-.874.445,5.47,4.803,12.64,7.701,20.487,7.701,7.888,0,15.091-2.928,20.596-7.77-.267-.121-.557-.259-.85-.44-1.434-.871-2.252-1.951-1.604-3.061.648-.925,1.829-.736,3.264.141.456.281,1.067.851,1.42,1.186,5.197-5.584,8.361-13.044,8.361-21.243h0ZM345.38,48.063s-3.226-7.004-4.7-9.1c-1.464-2.098-6.947-7.521-6.947-7.521.796-.556,2.167-.133,3.742,1.008,1.574,1.136,3.357,2.992,4.96,5.288,1.613,2.292,2.739,4.597,3.271,6.468.532,1.868.466,3.301-.326,3.858h0ZM317.892,46.143c.02-.566.134-1.22.339-1.941.531-1.867,1.664-4.172,3.269-6.464,1.607-2.295,3.385-4.152,4.958-5.288,1.181-.856,2.248-1.308,3.043-1.246.019.001.036.009.056.011.24.027.458.098.642.227h-.001s.001,0,.001,0c0,0-5.479,5.441-6.949,7.546-1.469,2.104-4.689,9.13-4.689,9.13-.497-.35-.71-1.044-.669-1.976h0ZM311.985,19.715s5.885,4.99,8.101,6.273c2.22,1.279,9.477,3.875,9.477,3.875-.49.844-1.906,1.04-3.815.669-1.91-.37-4.304-1.293-6.73-2.692-2.426-1.405-4.424-3.016-5.698-4.484-1.273-1.467-1.817-2.799-1.335-3.641h0ZM323.04,20.865c2.431,1.401,4.42,3.011,5.694,4.478.961,1.105,1.505,2.127,1.512,2.924,0,.022-.006.041-.007.063-.007.24-.058.461-.17.653h0s0,0,0,0c0,0-5.896-4.987-8.123-6.27-2.216-1.277-9.496-3.876-9.496-3.876.309-.535.994-.806,1.94-.84.555-.024,1.203.035,1.922.174,1.906.367,4.308,1.294,6.728,2.694h0ZM330.101,16.233c0,2.559,1.375,10.145,1.375,10.145-.968,0-1.847-1.134-2.478-2.969-.639-1.838-1.034-4.375-1.034-7.177s.395-5.337,1.034-7.176c.631-1.836,1.51-2.972,2.478-2.972,0,0-1.375,7.587-1.375,10.148h0ZM331.366,35.885c-.534,1.868-1.662,4.174-3.271,6.469-1.609,2.293-3.381,4.151-4.962,5.292-1.573,1.131-2.94,1.56-3.736.998,0,0,5.476-5.417,6.945-7.52,1.472-2.092,4.69-9.101,4.69-9.101.798.557.865,1.996.334,3.863h0ZM333.859,49.866c0,3.264-.924,5.909-2.07,5.909-1.137,0-2.062-2.645-2.062-5.909s.925-5.911,2.062-5.911c1.146,0,2.07,2.646,2.07,5.911h0ZM332.248,33.415c.057-.636.269-1.119.659-1.393v.002s.003-.002.004-.002c0,0,3.235,7.009,4.71,9.11,1.475,2.095,6.984,7.512,6.984,7.512-.211.15-.467.224-.755.239-.794.067-1.869-.386-3.052-1.237-1.579-1.145-3.345-2.999-4.958-5.292-1.603-2.294-2.74-4.597-3.27-6.469-.197-.7-.311-1.34-.335-1.895-.009-.204-.003-.395.013-.575h0ZM336.012,16.233c0,2.801-.393,5.339-1.033,7.177-.634,1.835-1.508,2.969-2.484,2.969,0,0,1.378-7.587,1.378-10.145s-1.378-10.148-1.378-10.148c.976,0,1.85,1.136,2.484,2.975.64,1.836,1.033,4.372,1.033,7.173h0ZM351.209,18.837s-7.264,2.599-9.478,3.876c-2.221,1.283-8.097,6.27-8.097,6.27-.487-.841.061-2.167,1.33-3.64,1.272-1.467,3.276-3.077,5.7-4.478,2.427-1.4,4.825-2.328,6.728-2.694,1.91-.369,3.328-.178,3.817.666h0ZM351.892,20.404c.007.803-.54,1.838-1.509,2.953-1.268,1.468-3.269,3.079-5.694,4.481-2.426,1.401-4.825,2.325-6.73,2.695-1.905.371-3.333.174-3.82-.669h.003s-.002-.003-.003-.005c0,0,7.264-2.61,9.478-3.904,2.224-1.283,8.099-6.301,8.099-6.301.128.219.183.472.176.75h0Z"/>
  <path class="st1" d="M0,54.647c4.13-.066,7.211-.197,11.473-.197,4.392,0,7.211.066,12.063.197v-.524c-7.08-.393-7.736-2.819-7.736-9.833v-12.259h3.999c9.047,0,10.948,1.836,11.8,7.277h.459v-14.882h-.393c-1.049,4.655-2.688,6.621-11.8,6.687h-4.065v-14.619c0-1.639.066-5.638.131-6.556,13.636,0,16.979,2.229,19.274,10.817h.393l.328-5.835c.131-2.753.197-4.851-.852-6.031-6.425.197-11.538.262-17.373.328-6.49,0-12.915-.066-17.7-.197v.525c6.031.328,7.539,1.836,7.539,9.309v25.633c0,6.949-1.049,9.375-7.539,9.637v.524h0ZM39.334,54.647c6.031-.197,10.817-.197,18.225-.197,6.097,0,10.62.066,17.11.197,1.18-1.114,1.901-2.622,2.163-6.425l.524-7.67h-.459c-2.688,8.064-7.211,13.046-13.767,13.046-5.966,0-7.998-.852-7.998-7.736v-26.878c0-7.342,1.442-9.047,7.015-9.44v-.525c-3.278.131-6.949.197-11.145.197-4.064,0-7.605-.066-11.669-.197v.525c6.687.262,7.539,2.622,7.539,9.44v25.633c0,6.884-1.18,9.244-7.539,9.506v.524h0ZM103.318,55.433c14.16,0,23.142-9.899,23.142-23.666s-8.982-23.535-23.142-23.535-23.011,9.768-23.011,23.535,8.916,23.666,23.011,23.666h0ZM103.318,54.712c-9.506,0-13.439-9.834-13.439-22.945,0-13.177,3.934-22.814,13.439-22.814,9.637,0,13.505,9.637,13.505,22.814s-3.868,22.945-13.505,22.945h0ZM127.574,54.647c4.523-.131,7.014-.197,11.21-.197,4.458,0,7.146.066,11.8.197v-.524c-6.162-.328-7.211-3.016-7.211-9.768v-10.686c1.442.197,3.737.262,5.441.262,1.377,2.819,2.95,5.769,4.786,8.916,1.901,3.278,3.737,6.162,5.703,8.129,2.623,2.622,6.032,4.196,11.735,4.196,1.836,0,3.934-.197,5.769-.524l.066-.524c-4.458-.131-8.129-2.884-14.095-11.604-2.557-3.802-4.458-7.08-6.162-10.489,5.31-1.77,9.178-5.703,9.309-10.751.196-9.571-8.326-12.259-19.077-12.259h-19.274v.525c6.556.328,7.539,2.491,7.539,8.916v26.026c0,6.818-.852,9.309-7.539,9.637v.524h0ZM143.373,33.013v-15.668c0-3.147.066-5.507.131-7.605,9.768-.065,13.702,4.655,13.702,12.194,0,3.999-1.115,6.884-3.409,8.654-2.36,1.77-5.769,2.557-10.424,2.426h0ZM189.852,18.983c0-6.818,1.115-9.244,7.539-9.44v-.525c-4.064.131-7.539.197-11.734.197-4.065,0-7.474-.066-11.604-.197v.525c6.687.262,7.605,2.622,7.605,9.44v25.633c0,6.884-1.18,9.244-7.605,9.506v.524c4.458-.197,7.474-.197,11.538-.197,4.327,0,7.736.066,11.8.197v-.524c-5.965-.197-7.539-2.426-7.539-9.44v-25.698h0ZM200.276,54.647h21.109c4.589,0,9.834-.721,13.767-2.36,7.277-3.016,13.046-9.44,13.046-20.454,0-11.472-6.031-18.159-15.406-21.044-3.802-1.311-8.653-1.77-12.915-1.77h-19.601v.525c6.162.328,7.539,1.967,7.539,9.44v25.436c0,6.949-1.115,9.506-7.539,9.702v.524h0ZM223.352,53.794c-5.769,0-7.277-1.836-7.277-8.719v-25.961c0-2.753.066-7.539.131-9.375,7.67,0,11.21.918,14.619,2.885,5.442,3.016,7.998,10.096,7.998,19.47,0,12.39-5.965,21.699-15.471,21.699h0ZM244.461,54.647c2.885-.131,5.572-.197,8.326-.197,3.802,0,5.572.066,8.26.197v-.524c-5.572-.131-8.129-1.901-5.966-8.391,1.377-3.868,3.016-7.867,3.672-9.243h15.405c1.115,2.819,3.082,7.474,4.065,10.489,1.639,5.048-.524,6.818-5.835,7.146v.524c3.344-.197,7.146-.197,11.473-.197,3.671,0,7.342.066,10.948.197v-.524c-4.196-.524-5.376-2.294-8.522-9.375-4.721-10.883-13.112-30.353-15.341-36.45l-.393.131c-2.754,6.752-13.046,28.517-17.57,37.958-2.753,5.704-4.72,7.342-8.522,7.736v.524h0ZM259.211,35.57l7.54-16.848c1.114,2.885,5.9,13.964,6.949,16.848h-14.489ZM379.114,54.647c5.31-.197,7.473-.197,11.669-.197,4.523,0,6.687,0,11.931.197v-.524c-6.359-.393-7.67-2.557-7.67-9.44v-24.584c0-2.95.066-10.03.066-10.03,10.292.066,13.439,3.016,15.93,12.128l.59-.131-.328-7.867c-.065-2.294-.327-4.458-1.18-5.572-1.311.59-4.064.721-5.9.721h-26.878c-1.639,0-4.458-.131-5.573-.721-.786,1.114-1.114,3.278-1.18,5.572l-.327,7.867.59.131c2.491-9.112,5.703-12.128,15.93-12.128,0,0,.066,7.08.066,10.03v24.518c0,6.818-1.049,9.178-7.736,9.506v.524h0ZM435.493,33.931c1.901,3.278,6.293,10.555,9.243,13.964,7.343,8.85,15.931,10.751,23.929,10.751,7.145,0,11.996-2.163,15.602-4.786l.131-.721c-2.95,1.704-6.752,2.885-12.128,2.885-6.621,0-12.39-2.885-18.421-9.506-3.999-4.327-8.326-10.751-10.621-14.619,4.983-1.77,8.851-5.572,8.982-10.62.196-9.571-8.326-12.259-19.077-12.259h-19.274v.525c6.555.328,7.539,2.491,7.539,8.916v26.026c0,6.818-.852,9.309-7.539,9.637v.524c4.523-.131,7.014-.197,11.21-.197,4.458,0,7.146.066,11.8.197v-.524c-6.162-.328-7.211-3.016-7.211-9.768v-10.686c1.442.197,4.13.262,5.835.262h0ZM429.658,33.013v-15.668c0-3.147.066-5.507.131-7.605,9.768-.065,13.702,4.655,13.702,12.194,0,4.851-1.639,7.998-4.983,9.637-2.229,1.114-5.179,1.573-8.85,1.442h0ZM482.759,55.433c6.818,0,11.342-2.557,14.423-7.736,2.163-3.475,2.884-8.719,2.884-14.685v-13.701c0-7.473,1.115-9.44,7.146-9.768v-.525c-3.343.131-5.113.197-8.129.197-4.065,0-4.523-.066-8.064-.197v.525c6.491.459,7.802,2.229,7.802,9.768v13.964c0,5.835-.787,10.358-2.819,13.374-2.229,3.409-6.884,5.245-11.604,5.245-5.048,0-9.506-1.901-11.407-6.818-1.049-2.753-1.18-6.556-1.245-11.604-.066-4.982-.066-9.047,0-14.16.131-7.605,1.18-9.44,7.539-9.768v-.525c-4.524.131-7.08.197-11.342.197-4.13,0-7.342,0-11.8-.197v.525c6.162.328,7.342,1.967,7.342,9.768v14.029c0,9.375,1.508,13.177,3.672,15.996,3.212,4.13,7.998,6.097,15.602,6.097h0ZM522.29,55.433c10.489,0,17.307-5.245,17.373-13.964,0-7.67-4.852-11.276-14.357-13.767-5.179-1.377-9.309-3.671-9.309-9.834,0-4.589,2.687-8.981,8.981-8.981,6.359,0,10.358,7.146,11.735,13.898h.59c.131-5.572.131-7.867-.066-9.112-.328-2.491-1.114-3.868-4.523-4.655-2.229-.524-4.72-.787-7.539-.787-10.49,0-16.718,4.851-16.718,12.98-.065,9.047,6.884,12.128,14.226,14.029,5.835,1.508,9.572,4.196,9.572,9.637-.066,5.507-3.475,9.899-9.834,9.899-6.097,0-11.997-5.376-13.505-15.537h-.524c-.525,6.752-.59,8.654-.459,9.965.131,2.622,1.115,4.196,5.048,5.113,2.491.656,5.9,1.114,9.309,1.114h0ZM551.593,54.647c5.31-.197,7.474-.197,11.669-.197,4.524,0,6.687,0,11.932.197v-.524c-6.359-.393-7.67-2.557-7.67-9.44v-24.584c0-2.95.065-10.03.065-10.03,10.293.066,13.439,3.016,15.931,12.128l.59-.131-.328-7.867c-.066-2.294-.328-4.458-1.18-5.572-1.311.59-4.065.721-5.9.721h-26.879c-1.639,0-4.458-.131-5.572-.721-.787,1.114-1.115,3.278-1.18,5.572l-.328,7.867.59.131c2.491-9.112,5.704-12.128,15.93-12.128,0,0,.066,7.08.066,10.03v24.518c0,6.818-1.049,9.178-7.736,9.506v.524h0Z"/>
  <path class="st1" d="M138.991,79.183l-4.518,13.392-4.519-13.392h-2.154l-4.613,13.322-4.425-13.322h-2.411l5.478,16.389h2.506l4.472-13.088,4.472,13.088h2.458l5.479-16.389h-2.225ZM150.394,93.536v-5.291h8.218v-1.99h-8.218v-5.034h9.224v-2.037h-11.566v16.389h11.894v-2.037h-9.552ZM179.964,95.573h2.459l-7.446-16.389h-2.318l-7.422,16.389h2.412l1.803-4.097h8.71l1.802,4.097h0ZM170.271,89.602l3.536-8.031,3.535,8.031h-7.071ZM188.838,95.573h11.215v-2.037h-8.874v-14.352h-2.341v16.389h0ZM208.458,95.573h2.318v-14.352h5.62v-2.037h-13.557v2.037h5.619v14.352h0ZM234.681,79.183v7.047h-9.412v-7.047h-2.341v16.389h2.341v-7.305h9.412v7.305h2.341v-16.389h-2.341ZM273.641,95.573l-.024-16.389h-1.92l-6.743,11.519-6.836-11.519h-1.92v16.389h2.247v-11.871l5.924,9.88h1.077l5.924-9.951.023,11.941h2.248ZM294.782,95.573h2.459l-7.446-16.389h-2.317l-7.422,16.389h2.411l1.803-4.097h8.71l1.802,4.097h0ZM285.089,89.602l3.536-8.031,3.535,8.031h-7.071ZM315.409,79.183v12.222l-9.833-12.222h-1.92v16.389h2.341v-12.222l9.834,12.222h1.92v-16.389h-2.342ZM338.893,95.573h2.458l-7.445-16.389h-2.318l-7.422,16.389h2.411l1.803-4.097h8.71l1.803,4.097h0ZM329.2,89.602l3.535-8.031,3.536,8.031h-7.071ZM358.888,92.623c-1.171.749-2.459,1.054-3.84,1.054-3.769,0-6.509-2.693-6.509-6.298,0-3.652,2.74-6.298,6.532-6.298,1.85,0,3.395.585,4.753,1.897l1.452-1.452c-1.498-1.662-3.699-2.529-6.298-2.529-5.081,0-8.78,3.535-8.78,8.382s3.699,8.382,8.733,8.382c2.294,0,4.566-.702,6.204-2.084v-6.392h-2.247v5.338h0ZM371.929,93.536v-5.291h8.218v-1.99h-8.218v-5.034h9.225v-2.037h-11.567v16.389h11.894v-2.037h-9.552ZM406.697,95.573l-.023-16.389h-1.92l-6.743,11.519-6.837-11.519h-1.919v16.389h2.247v-11.871l5.924,9.88h1.077l5.923-9.951.024,11.941h2.247ZM417.935,93.536v-5.291h8.219v-1.99h-8.219v-5.034h9.225v-2.037h-11.566v16.389h11.894v-2.037h-9.553ZM447.015,79.183v12.222l-9.834-12.222h-1.92v16.389h2.342v-12.222l9.833,12.222h1.92v-16.389h-2.341ZM461.507,95.573h2.318v-14.352h5.62v-2.037h-13.557v2.037h5.619v14.352h0Z"/>
  <metadata>
    <sfw xmlns="http://ns.adobe.com/SaveForWeb/1.0/">
      <slices/>
      <sliceSourceBounds x="14" y="347.24" width="584.11" height="95.76" bottomLeftOrigin="true"/>
    </sfw>
  </metadata>
</svg>